<svg width="512" height="160" xmlns="http://www.w3.org/2000/svg" xmlns:svg="http://www.w3.org/2000/svg">
 <g>
  <rect id="svg_1" width="512" height="160" fill="#2ecd71"/>
  <g id="svg_2">
   <g id="svg_3">
    <path id="svg_4" d="m107.688,103.172l-10.165,0l-25.711,-32.443l0,32.443l-10.765,0l0,-50.83l9.867,0l25.938,32.736l0,-32.736l10.835,0l0,50.83l0.001,0z" fill="#FFFFFF"/>
    <path id="svg_5" d="m150.703,71.1c3.664,3.512 5.531,8.148 5.531,13.9c0,5.836 -1.867,10.547 -5.531,14.131c-3.664,3.588 -8.523,5.383 -14.57,5.383c-6.063,0 -10.915,-1.795 -14.657,-5.383c-3.734,-3.584 -5.609,-8.295 -5.609,-14.131c0,-5.752 1.875,-10.389 5.54,-13.9c3.733,-3.512 8.664,-5.305 14.727,-5.305c6.046,0 10.905,1.793 14.569,5.305zm-14.57,3.961c-5.915,0 -9.946,3.961 -9.946,9.939c0,6.063 4.031,10.242 9.946,10.242c5.898,0 9.859,-4.18 9.859,-10.242c0,-5.979 -3.961,-9.939 -9.859,-9.939z" fill="#FFFFFF"/>
    <path id="svg_6" d="m193.711,76.033c-4.632,-0.973 -8,-1.492 -10.094,-1.492c-6.945,0 -11.359,4.262 -11.359,10.537c0,6.281 4.414,10.32 10.765,10.32c2.766,0 6.352,-0.523 10.758,-1.57l1.351,8.219c-4.484,1.49 -8.75,2.242 -12.859,2.242c-5.977,0 -10.836,-1.721 -14.648,-5.236c-3.742,-3.506 -5.609,-8.217 -5.609,-14.053c0,-5.83 1.867,-10.459 5.68,-13.9c3.813,-3.512 8.75,-5.234 14.953,-5.234c4.258,0 8.445,0.676 12.484,2.02l-1.422,8.147z" fill="#FFFFFF"/>
    <path id="svg_7" d="m213.539,103.172l-10.39,0l0,-53.076l10.39,0l0,53.076z" fill="#FFFFFF"/>
    <path id="svg_8" d="m252.945,70.502c3.359,2.914 5.008,6.652 5.078,11.289c0,2.318 -0.219,4.709 -0.672,7.248l-25.039,0c1.422,4.117 4.859,6.203 10.164,6.203c2.539,0 6.805,-0.594 12.711,-1.869l1.422,8.15c-5.758,1.867 -10.617,2.766 -14.43,2.766c-6.648,0 -11.734,-1.797 -15.398,-5.305c-3.586,-3.586 -5.383,-8.148 -5.383,-13.758c0,-5.756 1.797,-10.314 5.305,-13.826c3.594,-3.516 8.148,-5.23 13.609,-5.23c5.079,0 9.266,1.418 12.633,4.332zm-21.078,11.137l16.891,0c-0.219,-4.406 -3.516,-7.398 -8.227,-7.398c-4.554,-0.001 -7.695,2.839 -8.664,7.398z" fill="#FFFFFF"/>
    <path id="svg_9" d="m302.078,67.963l0,34.529c0,11.961 -7.398,19.813 -20.93,19.813c-3.219,0 -7.477,-0.752 -12.781,-2.164l1.648,-8.377c5.898,0.969 9.484,1.416 10.836,1.416c6.797,0 10.539,-3.508 10.836,-10.008c-2.914,0.297 -6.43,0.445 -10.688,0.445c-5.008,0 -9.195,-1.719 -12.406,-5.086c-3.219,-3.438 -4.867,-7.922 -4.867,-13.453c0.078,-11.584 6.656,-18.838 17.945,-18.838c9.415,-0.148 17.571,1.571 20.407,1.723zm-28.18,17.412c0,5.383 3.586,9.57 8.742,9.57c3.516,0 6.508,-0.227 9.047,-0.594l0,-19.064c-3.211,-0.301 -5.977,-0.449 -8.375,-0.449c-6.281,0 -9.414,3.512 -9.414,10.537z" fill="#FFFFFF"/>
    <path id="svg_10" d="m344.117,71.1c3.657,3.512 5.522,8.148 5.522,13.9c0,5.836 -1.865,10.547 -5.522,14.131c-3.664,3.588 -8.523,5.383 -14.578,5.383s-10.915,-1.795 -14.647,-5.383c-3.743,-3.584 -5.61,-8.295 -5.61,-14.131c0,-5.752 1.867,-10.389 5.53,-13.9c3.735,-3.512 8.673,-5.305 14.728,-5.305s10.913,1.793 14.577,5.305zm-14.578,3.961c-5.906,0 -9.944,3.961 -9.944,9.939c0,6.063 4.038,10.242 9.944,10.242c5.899,0 9.867,-4.18 9.867,-10.242c0,-5.979 -3.968,-9.939 -9.867,-9.939z" fill="#FFFFFF"/>
    <path id="svg_11" d="m388.391,103.172l-7.555,-21.084l-7.468,21.084l-9.946,0l-11.438,-35.807l10.54,0l6.429,21.898l8,-21.898l7.922,0l7.922,22.049l6.43,-22.049l10.54,0l-11.359,35.807l-10.017,0z" fill="#FFFFFF"/>
    <path id="svg_12" d="m446.875,71.1c3.664,3.512 5.531,8.148 5.531,13.9c0,5.836 -1.867,10.547 -5.531,14.131c-3.664,3.588 -8.523,5.383 -14.578,5.383s-10.915,-1.795 -14.649,-5.383c-3.741,-3.584 -5.608,-8.295 -5.608,-14.131c0,-5.752 1.867,-10.389 5.53,-13.9c3.743,-3.512 8.673,-5.305 14.728,-5.305s10.913,1.793 14.577,5.305zm-14.578,3.961c-5.906,0 -9.938,3.961 -9.938,9.939c0,6.063 4.032,10.242 9.938,10.242c5.905,0 9.867,-4.18 9.867,-10.242c0,-5.979 -3.962,-9.939 -9.867,-9.939z" fill="#FFFFFF"/>
   </g>
  </g>
   <path id="svg_13" d="m5.804993,6.869995l0.6,146.26l499.79,0l0,-146.26c-166.64,0 -333.28,0 -499.92,0l-0.47,0zm494.92,141.26l-489.79,0l0,-136.26l489.79,0l0,136.26z" fill="#FFFFFF"/>
  <text font-style="normal" font-weight="bold" xml:space="preserve" text-anchor="middle" font-family="Sans-serif" font-size="28" id="svg_14" y="69" x="462" stroke-linecap="null" stroke-linejoin="null" stroke-dasharray="null" stroke-width="0" fill="#ffffff">®</text>
 </g>
</svg>